
<svg xmlns="http://www.w3.org/2000/svg" version="1.1" xmlns:xlink="http://www.w3.org/1999/xlink" preserveAspectRatio="none" x="0px" y="0px" width="436px" height="121px" viewBox="0 0 436 121">
<defs>
<g id="Layer1_0_FILL">
<path fill="#FFFFFF" stroke="none" d="
M 903.05 457.75
L 903.05 27.5 584.1 27.5 584.1 -56.25 -80 -56.25 -80 27.5 -82.5 27.5 -82.5 457.75 903.05 457.75 Z"/>
</g>

<g id="Layer0_0_FILL">
<path fill="#0066F9" stroke="none" d="
M 25.9 101.8
Q 35.35 108.4 47.75 108.4 63.1 108.6 74.1 97.55 85.35 86.35 85.55 70.7 85.55 58.4 78.55 49.15
L 25.9 101.8
M 74.6 47.1
L 51.4 40.6 20.3 71.6 43.8 78.3 74.6 47.1
M 69.6 16.7
Q 60.15 10 47.85 10 32.4 9.9 21.4 20.95 10.2 32.15 10 47.8 10 60 16.95 69.35
L 69.6 16.7 Z"/>

<path fill="#0153CD" stroke="none" d="
M 401.65 29.7
L 401.65 27.35 394.4 27.35 394.4 29.7 396.65 29.7 396.65 35.5 399.3 35.5 399.3 29.7 401.65 29.7
M 412.3 30.6
Q 412 28.7 411.9 27.35
L 409.35 27.35
Q 409.05 28.2 408.55 29.4 408.05 30.6 407.55 31.45 407.3 30.6 406.8 29.4 406.2 28.3 405.8 27.35
L 403.35 27.35
Q 403.15 28.7 403.05 30.6 402.75 32.55 402.65 35.5
L 405.3 35.5 405.3 35
Q 405.3 34.6 405.3 34 405.3 33.35 405.4 32.55 405.4 31.95 405.4 31.05
L 406.6 34.6 408.55 34.6 409.85 31.05 410.05 35.5 412.7 35.5
Q 412.5 32.55 412.3 30.6 Z"/>
</g>

<g id="text_0_Layer0_0_FILL">
<path fill="#0052CC" stroke="none" d="
M 35.75 8.65
Q 33.25 7.3 29.4 6.2 25.55 5.05 20.25 5.05 15.75 5.05 12.2 6.15 8.65 7.25 6.15 9.3 3.65 11.35 2.25 14.25 0.9 17.2 0.9 20.8 0.9 24.45 2.2 27 3.5 29.5 5.5 31.3 7.6 33.1 10.15 34.25 12.75 35.4 15.3 36.35 21.2 38.3 23.65 40 26.05 41.7 26.05 44.3 26.05 45.5 25.7 46.45 25.3 47.45 24.3 48.15 23.35 48.9 21.7 49.3 20.1 49.75 17.6 49.75 12.6 49.75 9.15 48.75 5.65 47.7 3.35 46.4
L 0 55.8
Q 1.05 56.4 2.6 57.1 4.15 57.75 6.35 58.4 8.5 58.95 11.3 59.4 14.1 59.8 17.6 59.8 27.95 59.8 33.1 55.75 38.25 51.7 38.25 44.35 38.25 40.55 37.25 37.95 36.3 35.25 34.25 33.3 32.25 31.35 29.25 29.85 26.2 28.4 22.15 26.85 20.15 26.15 18.55 25.55 16.9 24.9 15.65 24.1 14.4 23.3 13.7 22.3 13.05 21.3 13.05 19.9 13.05 17.45 14.9 16.3 16.75 15.1 21 15.1 24.75 15.1 27.45 16 30.15 16.85 32.35 18
L 35.75 8.65
M 46.15 18.9
L 46.15 41.1
Q 46.15 45.2 47 48.6 47.85 52 49.8 54.45 51.8 56.95 55.15 58.3 58.5 59.65 63.6 59.65 68.6 59.65 73.15 58.95 77.7 58.25 80.55 57.4
L 80.55 18.9 69.3 18.9 69.3 49.65
Q 68.2 49.8 66.85 49.9 65.5 50 64.3 50 60.35 50 58.9 47.6 57.45 45.2 57.45 39.75
L 57.45 18.9 46.15 18.9
M 91.2 1.8
L 91.2 45.65
Q 91.2 48.85 91.85 51.35 92.5 53.9 94.25 55.7 96.05 57.45 99.1 58.45 102.15 59.4 107.1 59.5
L 108.7 50.2
Q 106.65 50 105.45 49.5 104.25 49 103.6 48.15 102.95 47.3 102.75 46.1 102.5 44.9 102.5 43.35
L 102.5 0 91.2 1.8
M 138.3 0.6
Q 135.65 0 132.45 0 123.9 0 119.55 4.55 115.2 9.1 115.2 16.75
L 115.2 58.75 126.5 58.75 126.5 28.3 140.4 28.3 140.4 18.9 126.5 18.9 126.5 16.95
Q 126.5 15.35 126.85 14 127.15 12.65 127.95 11.65 128.75 10.65 130.15 10.05 131.55 9.5 133.6 9.5 135.15 9.5 136.9 9.85 138.7 10.2 140.2 10.9
L 142.4 1.85
Q 140.95 1.25 138.3 0.6
M 177.8 23
Q 172.9 17.85 164.4 17.85 160.75 17.85 157.3 19.2 153.9 20.6 151.2 23.2 148.55 25.85 146.95 29.85 145.3 33.8 145.3 39.15 145.3 43.5 146.55 47.3 147.8 51.1 150.4 53.85 153.05 56.65 157.05 58.25 161 59.8 166.4 59.8 168.5 59.8 170.6 59.6 172.75 59.35 174.6 59 176.45 58.7 177.95 58.25 179.5 57.75 180.35 57.3
L 178.85 48.15
Q 176.95 49 173.95 49.55 170.95 50.15 167.85 50.15 163 50.15 160.15 48.05 157.3 46.05 156.9 42.55
L 182.5 42.55
Q 182.6 41.6 182.65 40.45 182.75 39.3 182.75 38.3 182.75 28.25 177.8 23
M 171.35 32
Q 171.75 33.4 171.8 34.8
L 156.9 34.8
Q 157.15 33.4 157.6 31.95 158.1 30.55 159.05 29.5 159.9 28.45 161.3 27.8 162.65 27.15 164.55 27.15 166.55 27.15 167.85 27.85 169.15 28.55 170.05 29.6 170.9 30.65 171.35 32
M 216.8 19.3
Q 213.45 18 208.35 18 203.35 18 198.8 18.75 194.25 19.45 191.4 20.3
L 191.4 58.75 202.7 58.75 202.7 28
Q 203.75 27.85 205.1 27.7 206.5 27.6 207.7 27.6 211.6 27.6 213.05 29.9 214.5 32.15 214.5 37.65
L 214.5 58.75 225.8 58.75 225.8 36.25
Q 225.8 32.15 224.95 28.85 224.1 25.5 222.15 23.05 220.2 20.65 216.8 19.3
M 253.25 17.85
Q 249.6 17.85 246.15 19.2 242.75 20.6 240.05 23.2 237.4 25.85 235.8 29.85 234.15 33.8 234.15 39.15 234.15 43.5 235.4 47.3 236.65 51.1 239.25 53.85 241.9 56.65 245.9 58.25 249.85 59.8 255.25 59.8 257.35 59.8 259.45 59.6 261.6 59.35 263.45 59 265.3 58.7 266.8 58.25 268.35 57.75 269.2 57.3
L 267.7 48.15
Q 265.8 49 262.8 49.55 259.8 50.15 256.7 50.15 251.85 50.15 249 48.05 246.15 46.05 245.75 42.55
L 271.35 42.55
Q 271.45 41.6 271.5 40.45 271.6 39.3 271.6 38.3 271.6 34.65 270.95 31.65 270.75 30.65 270.45 29.75 269.2 25.75 266.65 23 261.75 17.85 253.25 17.85
M 260.2 32
Q 260.6 33.4 260.65 34.8
L 245.75 34.8
Q 246 33.4 246.45 31.95 246.95 30.55 247.9 29.5 248.75 28.45 250.15 27.8 251.5 27.15 253.4 27.15 255.4 27.15 256.7 27.85 258 28.55 258.9 29.6 259.75 30.65 260.2 32 Z"/>
</g>
</defs>

<g transform="matrix( 1, 0, 0, 1, 0,0) ">
<use xlink:href="#Layer1_0_FILL"/>
</g>

<g transform="matrix( 1, 0, 0, 1, 0,0) ">
<use xlink:href="#Layer0_0_FILL"/>
</g>

<g transform="matrix( 1, 0, 0, 1, 121.45,28.25) ">
<g transform="matrix( 1, 0, 0, 1, 0,0) ">
<use xlink:href="#text_0_Layer0_0_FILL"/>
</g>
</g>
</svg>
